<svg id="visual" viewBox="0 0 900 100" width="900" height="100" xmlns="http://www.w3.org/2000/svg" xmlns:xlink="http://www.w3.org/1999/xlink" version="1.1"><rect x="0" y="0" width="900" height="100" fill="#F8F8F8"></rect><path d="M0 4L12.5 10.5C25 17 50 30 75 30.7C100 31.3 125 19.7 150 14.5C175 9.3 200 10.7 225 17.2C250 23.7 275 35.3 300 36.7C325 38 350 29 375 22.5C400 16 425 12 450 15C475 18 500 28 525 35.3C550 42.7 575 47.3 600 42.7C625 38 650 24 675 24.3C700 24.7 725 39.3 750 45.8C775 52.3 800 50.7 825 45.8C850 41 875 33 887.5 29L900 25L900 0L887.5 0C875 0 850 0 825 0C800 0 775 0 750 0C725 0 700 0 675 0C650 0 625 0 600 0C575 0 550 0 525 0C500 0 475 0 450 0C425 0 400 0 375 0C350 0 325 0 300 0C275 0 250 0 225 0C200 0 175 0 150 0C125 0 100 0 75 0C50 0 25 0 12.5 0L0 0Z" fill="#218380"></path></svg>